<?xml version="1.0" encoding="utf-8"?>
<!-- Generator: Adobe Illustrator 25.2.1, SVG Export Plug-In . SVG Version: 6.00 Build 0)  -->
<svg version="1.1" id="Layer_1" focusable="false" xmlns="http://www.w3.org/2000/svg" xmlns:xlink="http://www.w3.org/1999/xlink"
	 x="0px" y="0px" viewBox="0 0 500 500" style="enable-background:new 0 0 500 500;" xml:space="preserve">
<g>
	<g>
		<ellipse cx="406.5" cy="303.7" rx="19.3" ry="19.3"/>
		<ellipse transform="matrix(0.9239 -0.3827 0.3827 0.9239 -46.2631 152.6431)" cx="360.6" cy="192.6" rx="19.3" ry="19.3"/>
		<ellipse transform="matrix(0.1602 -0.9871 0.9871 0.1602 64.7358 370.4055)" cx="250" cy="147.2" rx="19.3" ry="19.3"/>
		<circle cx="138.8" cy="192.6" r="19.3"/>
		<path d="M250,278.9c-20.7,0-38.4,12.3-46.5,29.9L95.3,291.1c-6.6-1-12.8,3.3-13.8,10l0,0c-1,6.6,3.3,12.8,10,13.8l107.7,17.6
			c1.3,27.1,23.6,48.5,51,48.5c28.2,0,51.1-22.9,51.1-51.1S278.2,278.9,250,278.9z M250,356.3c-14.6,0-26.3-11.8-26.3-26.3
			s11.8-26.3,26.3-26.3c14.5,0,26.3,11.8,26.3,26.3S264.6,356.3,250,356.3z"/>
	</g>
	<path d="M250.5,67.8c-0.2,0-0.4,0-0.5,0s-0.4,0-0.5,0C120.7,68.1,16.4,172.6,16.4,301.5c0,43.9,12.1,85,33.2,120
		c4,6.7,11.1,10.7,18.9,10.7h363.3c7.7,0,14.9-4.1,18.9-10.7c21.1-35.1,33.2-76.2,33.2-120C483.7,172.6,379.4,68.1,250.5,67.8z
		 M430.2,408.1H69.9c-18.5-31.2-29.2-67.6-29.2-106.6c0-115.6,93.7-209.3,209.3-209.3l0,0l0,0c115.6,0,209.3,93.7,209.3,209.3
		C459.4,340.5,448.7,376.8,430.2,408.1z"/>
</g>
</svg>
