<?xml version="1.0" encoding="utf-8"?>
<!-- Generator: Adobe Illustrator 25.2.1, SVG Export Plug-In . SVG Version: 6.00 Build 0)  -->
<svg version="1.1" id="Layer_1" xmlns="http://www.w3.org/2000/svg" xmlns:xlink="http://www.w3.org/1999/xlink" x="0px" y="0px"
	 viewBox="0 0 500 500" style="enable-background:new 0 0 500 500;" xml:space="preserve">
<g>
	<path d="M294,163.5l7.9-31.7c1-4.2-1.5-8.4-5.7-9.5l-8.7-2.2c-4.2-1-8.4,1.5-9.5,5.7l-7.7,30.6c-6.3-1.6-12.7-3.1-19.1-4.5
		l7.7-30.9c1-4.2-1.5-8.4-5.7-9.5l-8.7-2.2c-4.2-1-8.4,1.5-9.5,5.7l-7.9,31.7c-5.2-1.1-10.3-2.4-15.3-3.6V143l-25.3-6.3
		c-4.2-1.1-8.5,1.5-9.5,5.7l-2.5,10.2c-1,4.2,1.6,8.5,5.8,9.5c4.7,1.1,9.9,2.4,9.7,2.5c9.7,2.5,11.4,8.8,11.2,13.9l-11.1,44.7
		c0.7,0.2,1.5,0.4,2.5,0.8c-0.8-0.2-1.7-0.4-2.5-0.6l-15.9,62.7c-1.1,2.9-4.2,7.4-11,5.7c0.2,0.2-8.3-1.6-14.9-3.1
		c-4.1-0.9-8.3,1.6-9.3,5.7l-3.2,12.8c-1,4.2,1.5,8.4,5.7,9.5l23.5,5.8c5.8,1.5,11.4,3,17,4.4l-8,32.1c-1,4.2,1.5,8.4,5.7,9.5
		l8.7,2.2c4.2,1,8.4-1.5,9.5-5.7l7.9-31.7c6.3,1.8,12.6,3.3,19.1,4.9l-7.9,31.5c-1,4.2,1.5,8.4,5.7,9.5l8.7,2.2
		c4.2,1,8.4-1.5,9.5-5.7l8-32c40.7,7.7,71.4,4.6,84.3-32.2c10.4-29.7-0.5-46.8-22-58c15.6-3.6,27.4-13.9,30.5-35l0,0
		C346.2,189.5,324.2,173.8,294,163.5z M287.3,294.9c-7.4,29.7-57.3,13.6-73.6,9.6l13.1-52.6C243.1,256,295,264,287.3,294.9z
		 M294.7,218c-6.8,27-48.3,13.3-61.8,9.9l11.9-47.7C258.3,183.6,301.7,189.8,294.7,218z"/>
</g>
<g>
	<path d="M244,38.9c-117,0-211.8,94.8-211.8,211.8S127,462.5,244,462.5s211.8-94.8,211.8-211.8S360.9,38.9,244,38.9z M244,434.7
		c-101.6,0-184-82.4-184-184s82.4-184,184-184s184,82.4,184,184S345.6,434.7,244,434.7z"/>
</g>
</svg>
