<?xml version="1.0" encoding="utf-8"?>
<!-- Generator: Adobe Illustrator 25.2.1, SVG Export Plug-In . SVG Version: 6.00 Build 0)  -->
<svg version="1.1" id="Layer_1" focusable="false" xmlns="http://www.w3.org/2000/svg" xmlns:xlink="http://www.w3.org/1999/xlink"
	 x="0px" y="0px" viewBox="0 0 500 500" style="enable-background:new 0 0 500 500;" xml:space="preserve">
<g>
	<path d="M466.5,326.3h-7.1c-2.1-4.8-4.7-9.3-7.8-13.4l3.5-6.2c4-6.9,2.4-15.6-3.7-20.6c-7.6-6.4-16.2-11.3-25.5-14.8
		c-7.6-2.8-15.9,0.2-19.8,7.1l-3.5,6.2c-5.2-0.6-10.4-0.6-15.5,0l-3.5-6.1c-3.9-6.9-12.3-9.9-19.9-7.1c-9.3,3.5-18,8.5-25.5,14.7
		c-6.2,5-7.8,13.7-3.7,20.6l3.5,6.2c-3.1,4.2-5.7,8.7-7.8,13.4h-7.1c-8,0-14.7,5.7-16,13.6c-1.7,9.7-1.7,19.6,0,29.5
		c1.3,7.9,8.1,13.6,16,13.6h7.1c2.1,4.8,4.7,9.3,7.8,13.4l-3.5,6.2c-4,6.9-2.4,15.6,3.7,20.6c7.6,6.4,16.2,11.3,25.5,14.8
		c1.9,0.6,3.8,1,5.7,1c5.8,0,11.2-3.1,14.1-8.1l3.5-6.2c5.2,0.6,10.4,0.6,15.5,0l3.5,6.1c3.9,6.9,12.3,9.9,19.9,7.1
		c9.3-3.5,18-8.5,25.5-14.7c6.2-5,7.8-13.7,3.7-20.6l-3.5-6.2c3.1-4.2,5.7-8.7,7.8-13.4h7.1c8,0,14.7-5.7,16-13.6
		c1.7-9.7,1.7-19.6,0-29.5C481.3,332,474.5,326.3,466.5,326.3z M434,395l8.5,14.9c0.5,0.7,0.3,1.8-0.4,2.2l-0.1,0.1
		c-6.3,5.3-13.5,9.4-21.3,12.4c-0.9,0.4-1.9,0-2.2-0.7L410,409l-5,0.9c-6.8,1.2-13.7,1.2-20.5,0l-5-0.9l-8.5,14.9
		c-0.5,0.7-1.4,1-2.2,0.7c-7.8-2.9-15-7-21.4-12.4c-0.6-0.6-0.8-1.6-0.4-2.3l8.5-14.9l-3.3-3.9c-4.4-5.2-8-11.2-10.3-17.7l-1.8-4.8
		H323c-0.9,0-1.7-0.6-1.8-1.5c-1.4-8.2-1.4-16.6,0-24.7c0.2-0.8,0.9-1.6,1.8-1.6h17.1l1.8-4.8c2.3-6.6,5.8-12.5,10.3-17.7l3.3-3.9
		l-8.5-14.9c-0.5-0.7-0.3-1.8,0.4-2.2l0.1-0.1c6.3-5.3,13.5-9.4,21.3-12.4c0.9-0.4,1.9,0,2.2,0.7l8.5,14.9l5-0.9
		c6.8-1.2,13.8-1.2,20.5,0l5,0.9l8.5-14.9c0.5-0.7,1.4-1,2.2-0.7c7.8,2.9,15,7,21.4,12.4c0.6,0.6,0.8,1.5,0.4,2.3l-8.5,14.9l3.3,3.9
		c4.4,5.2,8,11.2,10.3,17.7l1.7,4.8h17.1c0.9,0,1.7,0.6,1.8,1.5c1.4,8.2,1.4,16.6,0,24.7c-0.2,0.8-0.9,1.6-1.8,1.6h-17.1l-1.7,4.8
		c-2.3,6.6-5.8,12.5-10.3,17.7L434,395z"/>
	<path d="M323,164.7h7.1c2.1,4.8,4.7,9.3,7.8,13.4l-3.5,6.2c-4,6.9-2.4,15.6,3.7,20.6c7.6,6.4,16.2,11.3,25.5,14.8
		c1.9,0.6,3.8,1,5.7,1c5.8,0,11.2-3.1,14.1-8.1l3.5-6.2c5.2,0.6,10.4,0.6,15.5,0l3.5,6.1c3.9,6.9,12.3,10,19.9,7.1
		c9.3-3.5,18-8.5,25.5-14.7c6.2-5,7.8-13.7,3.7-20.6l-3.5-6.2c3.1-4.2,5.7-8.7,7.8-13.4h7.1c8,0,14.7-5.7,16-13.6
		c1.7-9.7,1.7-19.6,0-29.5c-1.3-7.9-8.1-13.6-16-13.6h-7.1c-2.1-4.8-4.7-9.3-7.8-13.4l3.5-6.2c4-6.9,2.4-15.6-3.7-20.6
		c-7.6-6.4-16.2-11.3-25.5-14.8c-7.6-2.8-15.9,0.2-19.8,7.1l-3.5,6.2c-5.2-0.6-10.4-0.6-15.5,0l-3.5-6.1c-3.9-6.9-12.3-9.9-19.9-7.1
		c-9.3,3.5-18,8.5-25.5,14.7c-6.2,5-7.8,13.7-3.7,20.6l3.5,6.2c-3.1,4.2-5.7,8.7-7.8,13.4H323c-8,0-14.7,5.7-16,13.6
		c-1.7,9.7-1.7,19.6,0,29.5C308.3,159,314.9,164.7,323,164.7z M355.5,96L347,81.1c-0.5-0.7-0.3-1.8,0.4-2.2l0.1-0.1
		c6.3-5.3,13.5-9.4,21.3-12.4c0.9-0.4,1.9,0,2.2,0.7l8.5,14.9l5-0.9c6.8-1.2,13.8-1.2,20.5,0l5,0.9l8.5-14.9c0.5-0.7,1.4-1,2.2-0.7
		c7.8,2.9,15,7,21.4,12.4c0.6,0.6,0.8,1.6,0.4,2.3L434,96l3.3,3.9c4.4,5.2,8,11.2,10.3,17.7l1.7,4.8h17.1c0.9,0,1.7,0.6,1.8,1.5
		c1.4,8.2,1.4,16.6,0,24.7c-0.2,0.8-0.9,1.6-1.8,1.6h-17.1l-1.7,4.8c-2.3,6.6-5.8,12.5-10.3,17.7l-3.3,3.9l8.5,14.9
		c0.5,0.7,0.3,1.8-0.4,2.2l-0.1,0.1c-6.3,5.3-13.5,9.4-21.3,12.4c-0.9,0.4-1.9,0-2.2-0.7l-8.5-14.9l-5,0.9c-6.8,1.2-13.7,1.2-20.5,0
		l-5-0.9l-8.5,14.9c-0.5,0.7-1.4,1-2.2,0.7c-7.8-2.9-15-7-21.4-12.4c-0.6-0.6-0.8-1.6-0.4-2.3l8.5-14.9l-3.3-3.9
		c-4.4-5.2-8-11.2-10.3-17.7l-1.8-4.8H323c-0.9,0-1.7-0.6-1.8-1.5c-1.4-8.2-1.4-16.6,0-24.7c0.2-0.8,0.9-1.6,1.8-1.6h17.1l1.8-4.8
		c2.3-6.6,5.8-12.5,10.3-17.7L355.5,96z"/>
	<path d="M419.3,330.2l-0.7-0.6c-8-6.1-16.8-9.1-25.8-8.5c-8.1,0.5-15.8,4-21.7,9.8c-5.8,5.8-9.3,13.5-9.8,21.7
		c-0.6,8.9,2.4,17.8,8.5,25.8l0.6,0.7l0.7,0.6c7.3,5.6,15.6,8.6,23.7,8.6c0.7,0,1.4,0,2-0.1c8.1-0.5,15.8-4,21.7-9.8
		c5.8-5.8,9.3-13.5,9.8-21.7c0.6-8.9-2.4-17.8-8.5-25.8L419.3,330.2z M408.3,368.1c-8.8,8.8-20.4,5.8-27.7,0.6
		c-5.3-7.3-8.2-18.8,0.6-27.7c8.8-8.8,20.4-5.8,27.7-0.6C414.2,347.8,417.1,359.3,408.3,368.1z"/>
	<path d="M370.3,160.8l0.7,0.6c7.3,5.6,15.6,8.6,23.7,8.6c0.6,0,1.4,0,2-0.1c8.1-0.5,15.8-4,21.7-9.8s9.3-13.5,9.8-21.7
		c0.6-8.9-2.4-17.8-8.5-25.8l-0.5-0.6l-0.8-0.7c-18-13.9-36.8-9.4-47.5,1.2c-5.8,5.8-9.3,13.5-9.8,21.7c-0.6,8.9,2.4,17.9,8.5,25.8
		L370.3,160.8z M381.2,122.8c8.8-8.8,20.4-5.8,27.7-0.6c5.3,7.3,8.2,18.8-0.6,27.7c-8.8,8.8-20.4,5.8-27.7,0.6
		C375.4,143.1,372.4,131.6,381.2,122.8z"/>
	<path d="M326.9,293.7c2-7.5-1.1-15.4-7.8-19.3l-20.5-11.9c1.5-11,1.5-22.2,0-33.2l20.5-11.8c6.8-3.9,9.9-11.8,7.7-19.3l-0.1-0.3
		c-7-22.6-19.3-43.9-35.5-61.5c-5.3-5.7-14-7-20.6-3.1L250,145.1c-8.9-6.8-18.6-12.5-28.8-16.7v-23.6c0-7.8-5.5-14.6-13.1-16.3
		c-23.2-5.2-47.9-5.2-71,0c-7.6,1.7-13.1,8.5-13.1,16.3v23.7c-10.1,4.2-19.8,9.7-28.8,16.6l-20.5-11.9c-6.8-4-15.4-2.7-20.6,3.2
		c-16.2,17.5-28.5,38.8-35.5,61.6c-2.4,7.6,0.7,15.6,7.7,19.5l20.5,11.9c-1.5,11-1.5,22.2,0,33.2l-20.5,11.8
		c-6.8,3.9-9.9,11.8-7.7,19.3l0.1,0.3c7,22.6,19.3,43.9,35.5,61.5c5.3,5.7,14,7,20.6,3.1l20.4-11.8c8.9,6.8,18.6,12.5,28.8,16.7
		v23.7c0,7.8,5.5,14.6,13.1,16.3c11.5,2.6,23.4,3.9,35.5,3.9c12.2,0,24.2-1.3,35.5-4c7.6-1.7,13.1-8.5,13.1-16.3v-23.7
		c10.1-4.2,19.8-9.7,28.8-16.6l20.6,11.9c6.8,4,15.4,2.7,20.6-3.1c16.2-17.5,28.5-38.8,35.5-61.6L326.9,293.7z M136.4,348.2
		c-12.7-4.4-24.3-11.1-34.2-19.7l-5-4.4l-30.5,17.6c-13.4-14.9-23.8-32.8-30-51.7l30.5-17.6l-1.2-6.5c-2.5-13.1-2.5-26.5,0-39.6
		l1.2-6.5l-30.5-17.6c6.1-19,16.4-36.8,29.9-51.7L97,168.1l5-4.3c10.2-8.7,21.8-15.4,34.3-19.8l6.2-2.2v-35.2
		c19.5-4.2,40.2-4.2,59.8,0v35.2l6.3,2.1c12.7,4.4,24.3,11.1,34.2,19.7l5,4.4l30.5-17.6c13.4,14.9,23.8,32.8,30,51.7l-30.5,17.6
		l1.2,6.5c2.5,13.1,2.5,26.5,0,39.6l-1.2,6.5l30.5,17.7c-6.2,19-16.5,36.8-30,51.7l-30.5-17.6l-5,4.3c-10.2,8.7-21.8,15.4-34.3,19.8
		l-6.2,2.2v35.2c-19.5,4.2-40.1,4.2-59.7,0v-35.3L136.4,348.2z"/>
	<path d="M230.9,246c0-32.2-26.2-58.4-58.4-58.4s-58.4,26.2-58.4,58.4s26.2,58.4,58.4,58.4S230.9,278.2,230.9,246z M212.2,246
		c0,21.9-17.9,39.7-39.7,39.7c-21.9,0-39.7-17.9-39.7-39.7s17.9-39.7,39.7-39.7C194.4,206.3,212.2,224,212.2,246z"/>
</g>
</svg>
