<?xml version="1.0" encoding="utf-8"?>
<!-- Generator: Adobe Illustrator 25.2.1, SVG Export Plug-In . SVG Version: 6.00 Build 0)  -->
<svg version="1.1" id="Layer_1" focusable="false" xmlns="http://www.w3.org/2000/svg" xmlns:xlink="http://www.w3.org/1999/xlink"
	 x="0px" y="0px" viewBox="0 0 500 500" style="enable-background:new 0 0 500 500;" xml:space="preserve">
<g>
	<path d="M15.7,119.5l130.7,131.3L15.7,382.1c-2.8,2.8-2.8,7.2,0,10c3.7,3.7,8.7,8.7,12.5,12.4c2.8,2.8,7.2,2.7,10,0l148.8-148.6
		c2.8-2.8,2.8-7.2,0-10L38.1,97.1c-2.8-2.8-7.2-2.8-10,0l-12.5,12.4C13,112.2,13,116.7,15.7,119.5z"/>
	<path d="M481.3,381H247.7c-3.9,0-7.1,3.2-7.1,7.1c0,5.2,0,12.4,0,17.6c0,3.9,3.2,7.1,7.1,7.1h233.6c3.9,0,7.1-3.2,7.1-7.1
		c0-5.2,0-12.4,0-17.6C488.4,384.2,485.2,381,481.3,381z"/>
</g>
</svg>
