<?xml version="1.0" encoding="utf-8"?>
<!-- Generator: Adobe Illustrator 25.2.1, SVG Export Plug-In . SVG Version: 6.00 Build 0)  -->
<svg version="1.1" id="Layer_1" focusable="false" xmlns="http://www.w3.org/2000/svg" xmlns:xlink="http://www.w3.org/1999/xlink"
	 x="0px" y="0px" viewBox="0 0 500 500" style="enable-background:new 0 0 500 500;" xml:space="preserve">
<g>
	<path d="M83.1,483c-17.7,0-34.3-6.9-46.8-19.4c-25.8-25.8-25.8-67.7,0-93.5l181-181c-6-21.8-6.7-44.7-1.9-66.7
		c5.4-25,18-47.7,35.9-65.7c16.9-16.8,37.9-28.9,60.7-35c22.2-5.9,45.6-6.2,68-0.7c7.4,1.8,13.2,7.4,15.2,14.8s0,15-5.3,20.3
		L329.1,117l7.7,46.2l46.2,7.7l60.8-60.8c5.3-5.3,13.2-7.4,20.4-5.3c7.4,2,12.8,7.6,14.7,15.1c5.5,22.3,5.3,45.8-0.6,68
		c-6.1,22.9-18.2,43.9-35.1,60.7c-34.8,34.8-85.1,47.6-132.5,34.2L129.9,463.6C117.4,476.1,100.7,483,83.1,483z M347.3,38
		c-10,0-20.1,1.3-29.8,3.9c-19.3,5.2-37.1,15.5-51.3,29.7c-30.5,30.5-40.9,75.3-27,117.3l2,6.1l-190,190
		c-17.6,17.6-17.6,46.2,0,63.8c8.5,8.5,19.9,13.2,31.9,13.2s23.4-4.7,31.9-13.2l189.9-189.9l6.2,2.1c12.2,4.1,24.7,6,37.1,6
		c29.8,0,58.6-11.6,80.3-33.2c14.2-14.2,24.5-32,29.7-51.4c5-18.7,5.2-38.6,0.6-57.4l-68.4,68.4l-71.7-11.9l-11.9-71.7l68.4-68.4
		C365.9,39.2,356.6,38,347.3,38z"/>
</g>
<ellipse transform="matrix(3.327793e-02 -0.9994 0.9994 3.327793e-02 -336.3698 486.0797)" cx="83.1" cy="416.9" rx="20.8" ry="20.8"/>
</svg>
