<?xml version="1.0" encoding="utf-8"?>
<!-- Generator: Adobe Illustrator 25.2.1, SVG Export Plug-In . SVG Version: 6.00 Build 0)  -->
<svg version="1.1" id="Layer_1" focusable="false" xmlns="http://www.w3.org/2000/svg" xmlns:xlink="http://www.w3.org/1999/xlink"
	 x="0px" y="0px" viewBox="0 0 500 500" style="enable-background:new 0 0 500 500;" xml:space="preserve">
<path d="M470.8,33.4c-6.5-7.6-16.2-12.1-26-12.1c-5.8,0-11.5,1.5-16.7,4.6l-390,224.8c-11.4,6.6-17.7,18.4-16.8,31.5
	c0.9,13.1,8.6,23.9,20.8,28.9l114.1,47.2v86.6c0,16.2,10.2,27.4,22.5,31.7c0.5,0.2,2.1,0.7,2.3,0.7c3.1,0.9,6.2,1.3,9.4,1.3
	c10.7,0,20.1-4.9,26.7-13.7l46.3-62.4l112.9,46.6c4.2,1.7,8.5,2.5,12.9,2.5c5.8,0,11.5-1.5,16.6-4.4c8.9-5,15.2-14.1,16.8-24.2
	l55.7-362.9C479.8,50.3,477.1,40.8,470.8,33.4z M178.7,446.6v-79l63.2,26.1l-45,59.1C191,460.5,178.7,456.3,178.7,446.6z
	 M400.4,419.4c-1.1,7.4-8.9,11.8-15.8,8.9l-156.7-64.7l139.4-201.1c0.9-1.4,1.1-2.4,0.4-3.6c-0.7-1.4-2.3-2.4-3.7-2.4
	c-0.3,0-1.1,0-2.4,1.1L158.2,334.8L51.3,290.6c-8.9-3.7-9.7-15.9-1.4-20.7L435.4,47.6c9.8-5.6,21.7,2.5,20,13.7L400.4,419.4z"/>
</svg>
