<?xml version="1.0" encoding="utf-8"?>
<!-- Generator: Adobe Illustrator 25.2.1, SVG Export Plug-In . SVG Version: 6.00 Build 0)  -->
<svg version="1.1" id="Layer_1" focusable="false" xmlns="http://www.w3.org/2000/svg" xmlns:xlink="http://www.w3.org/1999/xlink"
	 x="0px" y="0px" viewBox="0 0 500 500" style="enable-background:new 0 0 500 500;" xml:space="preserve">
<g>
	<path d="M250,485.1c-17.4,0-34.8-1.9-51.8-5.7c-10.2-2.2-17.6-11.4-17.6-22v-36.1c-15.9-6.4-30.7-15-44.2-25.6l-31.4,18.1
		c-9,5.2-20.7,3.5-27.8-4.2c-23.6-25.6-41.6-56.6-51.9-89.7l-0.1-0.2c-3-10.2,1.2-20.9,10.4-26.1l31.4-18.1c-2.3-16.9-2.3-34.1,0-51
		l-31.4-18.2c-9.3-5.2-13.5-16.1-10.3-26.3c10.3-33,28.2-64,51.8-89.6c7.1-7.9,18.5-9.6,27.8-4.3l31.4,18.2
		c13.6-10.5,28.4-19.1,44.2-25.5V42.6c0-10.5,7.4-19.7,17.7-22c33.8-7.6,69.5-7.6,103.4,0c10.2,2.2,17.6,11.4,17.6,22v36.1
		c15.9,6.4,30.7,15,44.2,25.6l31.4-18.2c9-5.2,20.7-3.5,27.8,4.2c23.6,25.6,41.6,56.6,51.9,89.7l0.1,0.2c3,10.2-1.2,20.9-10.4,26.1
		l-31.4,18.1c2.3,16.9,2.3,34.1,0,51l31.4,18.2c8.9,5.1,13.3,15.8,10.5,25.9l-0.1,0.4c-10.3,33.1-28.2,64.1-51.8,89.6
		c-7.1,7.9-18.5,9.6-27.8,4.3l-31.4-18.2c-13.6,10.5-28.4,19.1-44.2,25.5v36.2c0,10.5-7.4,19.7-17.7,22
		C284.9,483.2,267.5,485.1,250,485.1z M204.1,456.7c30.1,6.6,61.8,6.6,91.8,0v-51.9l7.8-2.8c18.7-6.6,35.9-16.6,51.1-29.5l6.3-5.3
		l44.8,25.9c20.9-22.7,36.8-50.2,46.1-79.6l-45-26l1.5-8.1c3.7-19.6,3.7-39.4,0-59l-1.5-8.1l44.9-25.9
		c-9.3-29.3-25.1-56.7-46.1-79.6l-44.9,25.9l-6.3-5.4c-15.1-13-32.2-22.8-51-29.4l-7.9-2.7V43.4c-30.1-6.6-61.8-6.6-91.8,0v51.9
		l-7.8,2.8c-18.7,6.6-35.9,16.6-51.1,29.5l-6.3,5.3L94,106.9c-20.9,22.7-36.8,50.2-46,79.6L93,212.4l-1.5,8.1
		c-3.7,19.6-3.7,39.4,0,59l1.5,8.1l-44.9,25.9c9.3,29.3,25.1,56.7,46.1,79.6l44.9-25.9l6.3,5.4c15.1,13,32.2,22.8,51,29.4l7.9,2.7
		L204.1,456.7L204.1,456.7z M296.7,456.5L296.7,456.5L296.7,456.5z M203.3,456.5L203.3,456.5L203.3,456.5z M93.4,393.5L93.4,393.5
		L93.4,393.5z M47.5,314L47.5,314L47.5,314z M47.9,187.1L47.9,187.1L47.9,187.1z M47.5,186.1L47.5,186.1L47.5,186.1z M452.5,186
		L452.5,186L452.5,186z M406.6,106.5L406.6,106.5L406.6,106.5z M296.7,43.6L296.7,43.6L296.7,43.6z M203.3,43.6L203.3,43.6
		L203.3,43.6z M250,333.7c-46.1,0-83.8-37.5-83.8-83.8s37.5-83.8,83.8-83.8s83.8,37.5,83.8,83.8S296.1,333.7,250,333.7z M250,189.6
		c-33.2,0-60.4,27.1-60.4,60.4c0,33.2,27.1,60.4,60.4,60.4c33.2,0,60.4-27.1,60.4-60.4C310.3,216.7,283.2,189.6,250,189.6z"/>
</g>
</svg>
