<?xml version="1.0" encoding="utf-8"?>
<!-- Generator: Adobe Illustrator 25.2.1, SVG Export Plug-In . SVG Version: 6.00 Build 0)  -->
<svg version="1.1" id="Layer_3" xmlns="http://www.w3.org/2000/svg" xmlns:xlink="http://www.w3.org/1999/xlink" x="0px" y="0px"
	 viewBox="0 0 500 500" style="enable-background:new 0 0 500 500;" xml:space="preserve">
<g>
	<path d="M194.8,93.5v-7.7c0-5.5-4.5-10.1-10.1-10.1H68.6c-22.2,0-40.1,18-40.1,40.1v253.9c0,22.2,18,40.1,40.1,40.1h116.2
		c5.5,0,10.1-4.5,10.1-10.1V392c0-5.5-4.5-10.1-10.1-10.1H67c-5.7,0-10.4-4.7-10.4-10.4V113.9c0-5.7,4.7-10.4,10.4-10.4h117.7
		C190.3,103.5,194.8,99,194.8,93.5z"/>
	<path d="M313.5,91.6l-6.9,6.9c-3.9,3.9-3.9,10.3,0,14.2l114.7,114.7H178.6c-5.5,0-10.1,4.5-10.1,10.1v10.5
		c0,5.5,4.5,10.1,10.1,10.1h242.6L306.6,372.6c-3.9,3.9-3.9,10.3,0,14.2l6.9,6.9c3.9,3.9,10.3,3.9,14.2,0l144.6-144.6
		c3.6-3.6,3.6-9.4,0-13.1L327.8,91.6C323.8,87.6,317.5,87.6,313.5,91.6z"/>
</g>
</svg>
