<?xml version="1.0" encoding="utf-8"?>
<!-- Generator: Adobe Illustrator 25.2.1, SVG Export Plug-In . SVG Version: 6.00 Build 0)  -->
<svg version="1.1" id="Layer_3" xmlns="http://www.w3.org/2000/svg" xmlns:xlink="http://www.w3.org/1999/xlink" x="0px" y="0px"
	 viewBox="0 0 500 500" style="enable-background:new 0 0 500 500;" xml:space="preserve">
<g>
	<path d="M250,28C127.4,28,28,127.4,28,250s99.4,222,222,222s222-99.4,222-222S372.5,28,250,28z M250,442.9
		c-106.5,0-192.9-86.4-192.9-192.9S143.5,57.1,250,57.1S442.9,143.5,442.9,250S356.5,442.9,250,442.9z"/>
	<ellipse transform="matrix(0.3827 -0.9239 0.9239 0.3827 17.5458 322.4151)" cx="250" cy="148.1" rx="28" ry="28"/>
	<path d="M280.7,334.9h-9.3V209.2c0-6.4-5.2-11.6-11.6-11.6H219c-6.4,0-11.6,5.2-11.6,11.6v5.9c0,6.4,5.2,11.6,11.6,11.6h8.9V335
		H219c-6.4,0-11.6,5.2-11.6,11.6v5.9c0,6.4,5.2,11.6,11.6,11.6h61.8c6.4,0,11.6-5.2,11.6-11.6v-5.9
		C292.3,340.1,287.2,334.9,280.7,334.9z"/>
</g>
</svg>
