<?xml version="1.0" encoding="utf-8"?>
<!-- Generator: Adobe Illustrator 25.2.1, SVG Export Plug-In . SVG Version: 6.00 Build 0)  -->
<svg version="1.1" id="Layer_1" xmlns="http://www.w3.org/2000/svg" xmlns:xlink="http://www.w3.org/1999/xlink" x="0px" y="0px"
	 viewBox="0 0 500 500" style="enable-background:new 0 0 500 500;" xml:space="preserve">
<path id="Combined-Shape" d="M402.4,140c14.1,30.8,17.3,36.8,28.1,68.2c6,19.5-6.5,48.7-57.4,23.8c-36.8-17.3-63.3-29.8-41.1-59
	c10.8-14.1,22.7-27.1,35.7-39.5C381.2,121.6,389.9,114,402.4,140z M389.9,337c27.1-26.5,64.4,3.2,38.4,38.4
	c-53,72-144.5,100.6-226.7,71.4c-82.2-29.2-138-107.7-138-198c0-54.1,17.9-99.6,51.9-140.1c33-36.8,82.2-66.6,130.9-67.1
	c68.2,0,98.5,59.5,74.7,93.1c-27.1,36.8-57.9,34.1-81.2,17.9c0,0-31.9-22.7-41.1-30.3c-14.6-11.4-30.3-11.4-36.3,7
	c-10.3,32.5-15.2,53-23.3,85.5c-3.8,16.2-5.4,33-6,49.8c0,30.8,13.5,60.1,36.8,79c16.2,15.2,33,28.7,51.4,40.6
	c14.6,10.3,31.9,15.7,49.2,15.7h1.6c17.3-0.5,34.6-6,49.2-15.7C345.5,370,368.3,354.3,389.9,337L389.9,337z M198.4,299.1
	c-9.7-3.8-31.4-22.7-24.9-36.8c2.7-7.6,21.1-9.7,27.1-9.7C234.1,252,235.7,312.6,198.4,299.1L198.4,299.1z M258.4,364
	c-4.3-3.8-12.4-11.9-19.5-18.4c-2.2-2.2-2.2-5.4-1.1-7.6c1.6-2.7,4.3-4.3,7.6-3.8c13-0.5,26-0.5,38.4,0c3.2,0,5.4,2.2,6.5,4.3
	c1.1,2.7,0.5,5.4-1.6,7c-7,6.5-15.2,14.6-18.9,18.4c-1.6,1.6-3.8,2.2-6,2.2C261.7,366.2,260,365.7,258.4,364L258.4,364z
	 M334.7,299.1c-37.3,13.5-36.3-47.6-2.2-46.5c6,0,23.8,2.2,27.1,9.7C366.6,276.9,344.5,295.9,334.7,299.1L334.7,299.1z"/>
</svg>
