<?xml version="1.0" encoding="utf-8"?>
<!-- Generator: Adobe Illustrator 25.2.1, SVG Export Plug-In . SVG Version: 6.00 Build 0)  -->
<svg version="1.1" id="Layer_1" xmlns="http://www.w3.org/2000/svg" xmlns:xlink="http://www.w3.org/1999/xlink" x="0px" y="0px"
	 viewBox="0 0 500 500" style="enable-background:new 0 0 500 500;" xml:space="preserve">
<g>
	<path d="M327.8,113.6l15.7-63.1l-38.4-9.6l-15.4,61.5c-10.2-2.5-20.5-4.9-30.8-7.2l15.4-61.9l-38.4-9.6L220,86.7
		c-8.3-1.8-16.5-3.8-24.6-5.8v-0.1l-53-13.3l-10.2,41.1c0,0,28.5,6.5,28,6.9c15.5,4,18.4,14.1,17.9,22.3l-17.8,71.9
		c1.1,0.3,2.4,0.7,4,1.3c-1.3-0.3-2.7-0.7-4.1-1l-25.1,100.7c-1.8,4.7-6.8,11.9-17.7,9.2c0.4,0.6-28-6.9-28-6.9L70.4,357l50,12.4
		c9.3,2.4,18.4,4.8,27.4,7.1l-16,63.9l38.4,9.6l15.8-63.1c10.2,2.8,20.3,5.4,30.7,7.9l-15.7,62.9l38.4,9.6l16-63.7
		c65.6,12.4,114.9,7.3,135.6-51.8c16.7-47.8-0.8-75.3-35.3-93.2c25.1-5.8,44.1-22.3,49-56.4l0,0
		C411.9,155.4,376.4,130.3,327.8,113.6z M317.1,325.1c-11.9,47.8-92.3,21.9-118.4,15.4l21-84.6C246,262.5,329.5,275.4,317.1,325.1z
		 M329,201.3c-10.9,43.4-77.7,21.3-99.5,16l19.1-76.7C270.5,145.9,340.3,156,329,201.3z"/>
</g>
</svg>
