<?xml version="1.0" encoding="utf-8"?>
<!-- Generator: Adobe Illustrator 25.2.1, SVG Export Plug-In . SVG Version: 6.00 Build 0)  -->
<svg version="1.1" id="Layer_2" xmlns="http://www.w3.org/2000/svg" xmlns:xlink="http://www.w3.org/1999/xlink" x="0px" y="0px"
	 viewBox="0 0 500 500" style="enable-background:new 0 0 500 500;" xml:space="preserve">
<g>
	<path d="M436.2,41.6H64.4C50.9,41.6,40,52.5,40,66v368.8c0,13.5,10.9,24.4,24.4,24.4h371.8c13.5,0,24.4-10.9,24.4-24.4V66
		C460.6,52.5,449.7,41.6,436.2,41.6z M236.5,434.7H67.8V266.6h168.8V434.7z M236.5,238.7H67.8V68.6h168.8V238.7z M432.8,434.7H264.4
		V266.6h168.5V434.7z M432.8,238.7H264.4V68.6h168.5V238.7z"/>
	<path d="M103.6,167.2h96.1c4.4,0,7.9-3.5,7.9-7.9v-12.6c0-4.4-3.5-7.9-7.9-7.9h-96.1c-4.4,0-7.9,3.5-7.9,7.9v12.6
		C95.7,163.6,99.2,167.2,103.6,167.2z"/>
	<path d="M300.6,334.8h96.1c4.4,0,7.9-3.5,7.9-7.9v-12.6c0-4.4-3.5-7.9-7.9-7.9h-96.1c-4.4,0-7.9,3.5-7.9,7.9v12.6
		C292.7,331.3,296.2,334.8,300.6,334.8z"/>
	<path d="M300.6,391.6h96.1c4.4,0,7.9-3.5,7.9-7.9v-12.6c0-4.4-3.5-7.9-7.9-7.9h-96.1c-4.4,0-7.9,3.5-7.9,7.9v12.6
		C292.7,388,296.2,391.6,300.6,391.6z"/>
	<path d="M300.6,167.9h33.9v33.9c0,4.4,3.5,7.9,7.9,7.9h12.6c4.4,0,7.9-3.5,7.9-7.9v-33.9h33.9c4.4,0,7.9-3.5,7.9-7.9v-12.6
		c0-4.4-3.5-7.9-7.9-7.9h-33.9v-33.9c0-4.4-3.5-7.9-7.9-7.9h-12.6c-4.4,0-7.9,3.5-7.9,7.9v33.9h-33.9c-4.4,0-7.9,3.5-7.9,7.9V160
		C292.7,164.3,296.2,167.9,300.6,167.9z"/>
	<path d="M107.8,384.1l8.9,8.9c3.1,3.1,8.1,3.1,11.2,0l23.9-23.9l23.9,23.9c3.1,3.1,8.1,3.1,11.2,0l8.9-8.9c3.1-3.1,3.1-8.1,0-11.2
		L171.9,349l23.9-23.9c3.1-3.1,3.1-8.1,0-11.2l-8.9-8.9c-3.1-3.1-8.1-3.1-11.2,0l-23.9,23.9l-23.9-23.9c-3.1-3.1-8.1-3.1-11.2,0
		l-8.9,8.9c-3.1,3.1-3.1,8.1,0,11.2l23.9,23.9l-23.9,23.9C104.7,376,104.7,381,107.8,384.1z"/>
</g>
</svg>
