<?xml version="1.0" encoding="utf-8"?>
<!-- Generator: Adobe Illustrator 25.2.1, SVG Export Plug-In . SVG Version: 6.00 Build 0)  -->
<svg version="1.1" id="Layer_2" xmlns="http://www.w3.org/2000/svg" xmlns:xlink="http://www.w3.org/1999/xlink" x="0px" y="0px"
	 viewBox="0 0 500 500" style="enable-background:new 0 0 500 500;" xml:space="preserve">
<g>
	<path d="M278.2,135.6 M326.5,141 M123.1,153.3 M293.2,154.1l-15-18.5c-9.2-0.5-18.6-0.8-28.1-0.8c-46.9,0-90.5,6.8-127.1,18.6
		l2.2,17.3c35.1-11.6,78.2-18.5,124.8-18.5C264.9,152.1,279.3,152.8,293.2,154.1 M159.8,338.7C87.1,323.1,36.7,289.3,36.7,250
		c0-25.3,21-48.4,55.4-65.8l-2-18.1C45,187.2,16.9,217,16.9,250c0,50.5,65.7,93.4,157.1,109L159.8,338.7z M340.4,161.3
		c72.8,15.6,123.2,49.5,123.2,88.7c0,25.2-20.8,48.2-55,65.6l2,18.1c44.9-21,72.9-50.7,72.9-83.7c0-50.5-65.6-93.4-157-109
		L340.4,161.3 M375.1,329.4c-35.1,11.6-78.3,18.5-125,18.5c-14.5,0-28.7-0.7-42.4-1.9l15,18.5c9,0.5,18.1,0.8,27.4,0.8
		c47,0,90.7-6.9,127.4-18.7L375.1,329.4z M340.4,161.3 M293.2,154.1"/>
	<path d="M127.8,217.1c-23.5-70.5-19.9-131.1,13.9-151c22.3-13.1,53.6-6.3,86.9,15.6l13.7-11.4c-41.4-28.8-81.9-38.2-110.6-21.3
		c-43.2,25.5-47,103.1-14.6,189.2L127.8,217.1z M363,216.1c-4.2-8.2-8.7-16.4-13.6-24.6c-23.7-40.3-51.7-74.3-80.3-99.8l-13.2,11.2
		c27.6,24.3,55.1,57.7,78.6,97.5c7.6,12.8,14.4,25.7,20.3,38.5L363,216.1z M372.8,283.7c23.2,70.2,19.5,130.3-14.2,150.2
		c-22.1,13-53.2,6.4-86.1-15.1L258.6,430c41.3,28.5,81.5,37.8,110.1,21c43.2-25.5,47-102.8,14.8-188.8L372.8,283.7z M243.3,396.3
		c-27.2-24.2-54.3-57.3-77.5-96.5c-7.5-12.7-14.2-25.4-20.1-38.1l-8.6,21.9c4.3,8.3,8.9,16.7,13.8,25c23.5,39.8,51,73.5,79.3,98.9
		L243.3,396.3z"/>
	<path d="M282.5,371.7c-50.2,55.8-105.3,82.8-139.4,63c-22-12.8-31.5-42.7-29.1-81.5l-16.7-6.6c-4.4,49.5,7.3,88.7,35.8,105.2
		c43.6,25.3,113.4-9.8,172.7-80.8L282.5,371.7z M336.2,330.1c4.7-7.2,9.3-14.6,13.7-22.2c23.5-40.6,39.5-81.8,47.7-119.3l-15.9-7.5
		c-7.5,36.4-23.3,77.5-46.8,118.1c-7.2,12.5-14.9,24.3-22.8,35.4L336.2,330.1z M118.7,318.6c7.5-36.3,23.3-77.2,46.7-117.8
		c7-12.1,14.4-23.5,22-34.3l-21.6,0.9c-5.3,8-10.4,16.2-15.4,24.7c-23.6,40.8-39.7,82.2-47.8,119.9L118.7,318.6z M403,153.3
		c4.4-49.4-7.3-88.6-35.8-105.1C324,23.1,253.1,58.6,194.1,128.4l24.4-0.7c50.1-55.3,104.7-82,138.8-62.3
		c21.9,12.7,31.4,42.5,29.1,81L403,153.3z"/>
	<g>
		<path d="M266,194.6l-0.2-18.8c-0.1-2.5-2.1-4.5-4.6-4.5l-5.2,0c-2.5,0.1-4.5,2.1-4.5,4.6l0.2,18.2c-3.7,0-7.5,0.1-11.3,0.3
			l-0.2-18.4c-0.1-2.5-2.1-4.5-4.6-4.5l-5.2,0c-2.5,0.1-4.5,2.1-4.5,4.6l0.2,18.8c-3.1,0.1-6.1,0.2-9.1,0.2l0-0.1l-15,0.2
			c-2.5,0-4.5,2.1-4.5,4.6l0.1,6.1c0.1,2.5,2.1,4.5,4.6,4.5c2.8-0.1,5.9-0.1,5.8,0c5.8,0,7.6,3.2,8.3,6.1l0.4,26.6
			c0.4,0,0.9,0,1.5,0.1c-0.5,0-1,0-1.5,0l0.3,37.3c-0.2,1.8-1.3,4.7-5.3,4.8c0.1,0.1-4.9,0.3-8.8,0.5c-2.4,0.1-4.4,2.1-4.4,4.5
			l0.1,7.6c0.1,2.5,2.1,4.5,4.6,4.5l14-0.2c3.5,0,6.8,0,10.1,0l0.2,19.1c0.1,2.5,2.1,4.5,4.6,4.5l5.2,0c2.5-0.1,4.5-2.1,4.5-4.6
			l-0.2-18.8c3.8,0.1,7.5,0,11.4-0.1l0.2,18.7c0.1,2.5,2.1,4.5,4.6,4.5l5.2,0c2.5-0.1,4.5-2.1,4.5-4.6l-0.2-19
			c23.8-1.7,40.5-7.9,42.3-30.3c1.5-18.1-7.1-26-20.8-29.1c8.2-4.3,13.2-11.8,11.9-24l0,0C298.9,201.5,284.3,196,266,194.6z
			 M281.5,268.9c0.2,17.7-30,16-39.7,16.1l-0.4-31.3C251.1,253.7,281.2,250.6,281.5,268.9z M274.3,224.9c0.2,16.1-25,14.5-33,14.6
			l-0.3-28.4C249,211.1,274.1,208.2,274.3,224.9z"/>
	</g>
</g>
</svg>
