<?xml version="1.0" encoding="utf-8"?>
<!-- Generator: Adobe Illustrator 25.2.1, SVG Export Plug-In . SVG Version: 6.00 Build 0)  -->
<svg version="1.1" xmlns="http://www.w3.org/2000/svg" xmlns:xlink="http://www.w3.org/1999/xlink" x="0px" y="0px"
	 viewBox="0 0 500 500" style="enable-background:new 0 0 500 500;" xml:space="preserve">
<style type="text/css">
	.st0{opacity:0.7;}
	.st1{fill:url(#SVGID_1_);}
</style>
<g id="Layer_3">
</g>
<g id="Layer_2">
	<g>
		<path class="st0" d="M395.1,86.8H345c-6.3,0-11.4,5.1-11.4,11.4v301.8c0,6.3,5.1,11.4,11.4,11.4h50.2c6.3,0,11.4-5.1,11.4-11.4
			V98.3C406.6,92,401.5,86.8,395.1,86.8z"/>
		<linearGradient id="SVGID_1_" gradientUnits="userSpaceOnUse" x1="249.7827" y1="252.6183" x2="249.7827" y2="421.3088">
			<stop  offset="1.105084e-03" style="stop-color:#000000;stop-opacity:0.1"/>
			<stop  offset="0.8173" style="stop-color:#000000;stop-opacity:0.7"/>
		</linearGradient>
		<path class="st1" d="M101.3,437.6h297c21,0,38-17,38-38V250.7h-29.7v149.4c0,6.3-5.1,11.4-11.4,11.4H345
			c-6.3,0-11.4-5.1-11.4-11.4V250.7H63.3v148.8C63.3,420.5,80.3,437.6,101.3,437.6z"/>
		<path d="M400.3,44.7H99.2c-29.6,0-53.6,24-53.6,53.6v303.5c0,29.6,24,53.6,53.6,53.6h301.1c29.6,0,53.6-24,53.6-53.6V98.3
			C453.9,68.7,429.9,44.7,400.3,44.7z M436.3,399.5c0,21-17,38-38,38h-297c-21,0-38-17-38-38V100.5c0-21,17-38,38-38h297
			c21,0,38,17,38,38V399.5z"/>
	</g>
</g>
</svg>
