<?xml version="1.0" encoding="utf-8"?>
<!-- Generator: Adobe Illustrator 25.2.1, SVG Export Plug-In . SVG Version: 6.00 Build 0)  -->
<svg version="1.1" id="Layer_3" xmlns="http://www.w3.org/2000/svg" xmlns:xlink="http://www.w3.org/1999/xlink" x="0px" y="0px"
	 viewBox="0 0 500 500" style="enable-background:new 0 0 500 500;" xml:space="preserve">
<g>
	<path d="M251,328.9c21.1,0,38.2-17.1,38.2-38.2s-17.1-38.2-38.2-38.2s-38.2,17.1-38.2,38.2S229.9,328.9,251,328.9z"/>
	<path d="M260.9,117.7c-29.8-1.7-58,4.4-83,16.1c-2.1-53.6-46.1-96.3-100.1-96.3v251.4c0,0.6-0.1,1.3-0.1,1.9c0,0.6,0.1,1.3,0.1,1.9
		v2.2h0.1c0.4,18.6,3.8,36.6,9.7,53.3c9.8,27.8,45,36.1,65.8,15.3l35.3-35.3c-9.6-15.9-13.7-35.4-8-56.5c7.5-27.7,31.5-49.2,60-53.1
		c47.8-6.6,88.3,33.3,82.8,80.9c-3.2,28-23.5,51.9-50.3,60.6c-20.1,6.5-38.7,3.6-54.4-4.2l-34.6,34.6
		c-21.1,21.1-12.3,57.3,16.3,66.1c16,4.9,32.9,7.6,50.5,7.6c97.2,0,175.7-80,173.3-177.8C422,197.3,349.7,122.8,260.9,117.7z"/>
</g>
</svg>
