<?xml version="1.0" encoding="utf-8"?>
<!-- Generator: Adobe Illustrator 25.2.1, SVG Export Plug-In . SVG Version: 6.00 Build 0)  -->
<svg version="1.1" id="Layer_1" xmlns="http://www.w3.org/2000/svg" xmlns:xlink="http://www.w3.org/1999/xlink" x="0px" y="0px"
	 viewBox="0 0 500 500" style="enable-background:new 0 0 500 500;" xml:space="preserve">
<g>
	<path d="M112.6,195.3c-33.5,0-60.7,27.2-60.7,60.7s27.2,60.7,60.7,60.7s60.7-27.2,60.7-60.7S146,195.3,112.6,195.3z M112.6,280.7
		c-13.6,0-24.7-11.1-24.7-24.7s11.1-24.7,24.7-24.7s24.7,11.1,24.7,24.7C137.3,269.6,126.2,280.7,112.6,280.7z"/>
	<path d="M430.1,239.1H221.9c-9.9,0-18,8.1-18,18c0,9.9,8.1,18,18,18h208.3c9.9,0,18-8.1,18-18S440.1,239.1,430.1,239.1z"/>
	<path d="M112.6,58c-33.5,0-60.7,27.2-60.7,60.7s27.2,60.7,60.7,60.7s60.7-27.2,60.7-60.7S146,58,112.6,58z M112.6,143.4
		c-13.6,0-24.7-11.1-24.7-24.7S99,94,112.6,94c13.6,0,24.7,11.1,24.7,24.7S126.2,143.4,112.6,143.4z"/>
	<path d="M430.1,101.8H221.9c-9.9,0-18,8.1-18,18s8.1,18,18,18h208.3c9.9,0,18-8.1,18-18S440.1,101.8,430.1,101.8z"/>
	<path d="M112.6,332.6c-33.5,0-60.7,27.2-60.7,60.7S79.1,454,112.6,454s60.7-27.2,60.7-60.7S146,332.6,112.6,332.6z M112.6,418
		c-13.6,0-24.7-11.1-24.7-24.7s11.1-24.7,24.7-24.7s24.7,11.1,24.7,24.7S126.2,418,112.6,418z"/>
	<path d="M430.1,376.4H221.9c-9.9,0-18,8.1-18,18s8.1,18,18,18h208.3c9.9,0,18-8.1,18-18S440.1,376.4,430.1,376.4z"/>
</g>
</svg>
