<?xml version="1.0" encoding="utf-8"?>
<!-- Generator: Adobe Illustrator 25.2.1, SVG Export Plug-In . SVG Version: 6.00 Build 0)  -->
<svg version="1.1" id="Layer_3" xmlns="http://www.w3.org/2000/svg" xmlns:xlink="http://www.w3.org/1999/xlink" x="0px" y="0px"
	 viewBox="0 0 500 500" style="enable-background:new 0 0 500 500;" xml:space="preserve">
<g>
	<path d="M296.7,250.6c0.1,12.3-3.7,25-11.9,36.4c-19.1,26.4-53,26.8-72.8,0.9c-17.7-23.2-16.9-58.5,2-80.8
		c21.6-25.5,58.2-20.6,74.9,10C294.1,226.8,296.7,237.2,296.7,250.6z M262.6,279.4c-14.7-5.4-23.1-15.3-24.1-30.7
		c-1-15.3,6.1-26.4,19.6-34.4c-8.8-4.1-16-3.1-22.7,1.6c-20.5,14.4-19.9,52.6,0.9,66.5C244.6,288,255.1,287,262.6,279.4z
		 M275.2,247.4c-0.1-8.4-5-15-11-14.6c-5.7,0.3-10.1,8.2-9,16.1c0.9,6.5,5.7,11.6,10.5,11.2C271.5,259.5,275.3,254.4,275.2,247.4z"
		/>
	<path d="M187.5,136.6c-2.6,3.6-4,7.1-6.5,8.8c-14.3,9.6-24.7,22.2-31.3,38.2c-2.6,6.4-8.6,8.8-14.2,6.4c-5.1-2.2-7.4-8.2-5-14.3
		c7.9-20.1,20.9-36.2,39.3-47.5c2.7-1.7,7.6-1.7,10.5-0.4C183.3,129.2,184.9,133.2,187.5,136.6z"/>
</g>
<path d="M421.1,228.9C419.4,148,361.7,79.8,282,65.2c-58.6-10.7-110,5.3-152.5,47c-34.2,33.5-50.5,75.2-50.6,123
	c-0.2,61.3,0,122.6,0,183.9c0,2.8-0.2,5.7,0.1,8.5c0.8,9.2,9.7,13.4,17.2,8c2.1-1.5,4-3.3,6-5c10.3-8.8,20.3-17.8,30.8-26.3
	c7.8-6.3,11.4-6.2,19.4-0.1c8.3,6.4,16.2,13.4,24.7,19.5c13.9,10.1,24.3,10.1,38.3,0.2c7.4-5.2,14.2-11.2,21.2-17
	c11.7-9.6,14.8-9.6,26.5,0.3c6.3,5.3,12.5,10.8,19.1,15.8c16.3,12.3,25.4,12.2,42,0c8.1-6,15.8-12.5,23.9-18.5
	c8.9-6.5,12.3-6.4,21,0.4c3.2,2.5,6.2,5.1,9.2,7.8c8.5,7.4,16.7,15.3,25.6,22.2c2.7,2.1,7.5,2.8,11,2.2c4.6-0.8,6.5-5,6.6-9.7
	c0-1.8,0-3.6,0-5.4c0-33.3,0-66.5,0-99.8c0,0-0.1,0-0.1,0C421.2,291,421.8,260,421.1,228.9z M381.4,279.2c-4.5,7.4-17,9.1-25.5,3.3
	c-7.9-5.3-12.6-13-14.6-22.1c-3.4-15-1.2-28.9,9.3-40.7c7.5-8.3,16.8-10.2,26.6-5.2C348.8,231.3,353.7,270.2,381.4,279.2z
	 M377.1,249.1c-1.1-8,3.3-15.8,9-16.1c6-0.3,10.9,6.2,11,14.6c0,7-3.8,12.2-9.5,12.7C382.8,260.7,378,255.6,377.1,249.1z
	 M399.2,403.6c-3.2-2.7-5.6-5-8.2-7c-5.8-4.6-11.6-9.4-17.7-13.7c-9.7-6.8-20.2-7-30.1-0.7c-8.5,5.4-16.3,11.7-24.5,17.7
	c-0.7,0.5-1.2,1-1.9,1.5c-13.4,10.8-16.6,10.8-29.5-0.3c-2.6-2.2-5-4.7-7.5-7c-1.2-1.1-2.3-2.3-3.6-3.3c-22.1-17.3-35.1-17-57.2,1.9
	c-4.7,4.1-9.3,8.4-14.2,12.2c-7.5,5.8-11.3,5.8-18.9,0c-9.7-7.2-18.9-15.1-28.8-21.9c-10.6-7.3-21.7-6.8-32.2,0.5
	c-6.9,4.8-13.4,10.4-20,15.6c-1.6,1.2-3,2.6-5.6,4.7c-0.2-3.2-0.3-5-0.3-6.7c0-54-0.7-108.1,0.2-162.1c1.1-65,31.1-113,90.6-139.4
	c84.2-37.5,181.2,10.5,204.7,99.6c0.4,1.7,0.6,3.4,0.8,4.6c-6.8-2.8-13.2-6.6-20.1-8c-20.3-4.1-35.2,5-46.4,21.2
	c-15.8,23-13.4,57.9,4.9,78.2c17.6,19.4,41.7,21.3,62,4.7c0.9-0.7,1.7-1.5,3.3-2.9C399.2,330.3,399.2,366.4,399.2,403.6z"/>
</svg>
