<?xml version="1.0" encoding="utf-8"?>
<!-- Generator: Adobe Illustrator 25.2.1, SVG Export Plug-In . SVG Version: 6.00 Build 0)  -->
<svg version="1.1" id="Layer_2_1_" xmlns="http://www.w3.org/2000/svg" xmlns:xlink="http://www.w3.org/1999/xlink" x="0px" y="0px"
	 viewBox="0 0 500 500" style="enable-background:new 0 0 500 500;" xml:space="preserve">
<g>
	<path d="M325.2,111.7c14.4-2.9,29.1-4.6,44.5-4.6c36.5,0,70.9,9,101.1,24.7c-40.3-45.7-99.2-74.6-164.8-74.6
		c-90,0-167.2,54.2-201.1,131.6h0.7c-8,18.8-12.3,39.4-12.3,61.2c0,59.7,33.2,111.6,82.3,138.3c-14.6,3.1-29.6,4.7-45.2,4.7
		c-36.5,0-70.9-9-101.1-24.7c40.3,45.7,99.2,74.6,164.8,74.6c90,0,167.2-54.2,201.1-131.6l0,0c8-18.8,12.4-39.6,12.4-61.4
		C407.5,190.2,374.1,138.4,325.2,111.7z M250.3,315.4c-36.2,0-65.6-29.3-65.6-65.6s29.3-65.6,65.6-65.6s65.6,29.3,65.6,65.6
		S286.4,315.4,250.3,315.4z"/>
</g>
</svg>
