<?xml version="1.0" encoding="utf-8"?>
<!-- Generator: Adobe Illustrator 25.2.1, SVG Export Plug-In . SVG Version: 6.00 Build 0)  -->
<svg version="1.1" id="Layer_2_1_" xmlns="http://www.w3.org/2000/svg" xmlns:xlink="http://www.w3.org/1999/xlink" x="0px" y="0px"
	 viewBox="0 0 500 500" style="enable-background:new 0 0 500 500;" xml:space="preserve">
<path d="M446.4,96.9L266.8,30.4c-10.8-4-22.7-4-33.4,0.1L52.9,99.3C34.3,106.2,22,124,22,143.9v190.5c0,17.8,10,34.1,25.8,42.4
	l180,93.1c13.8,7.2,30.4,7.1,44.1-0.2L452,376c15.7-8.2,25.5-24.5,25.5-42.3V141.6C477.6,121.6,465.1,103.7,446.4,96.9z M236,441.7
	L48.8,348.2l1-187.7L236,241V441.7z M263.2,441.7V241l186.1-80.4l1,187.7L263.2,441.7z M250,217.1L48.8,130.5l199.9-76.6l198.9,77.2
	L250,217.1z"/>
</svg>
