<?xml version="1.0" encoding="utf-8"?>
<!-- Generator: Adobe Illustrator 25.2.1, SVG Export Plug-In . SVG Version: 6.00 Build 0)  -->
<svg version="1.1" id="Layer_1" focusable="false" xmlns="http://www.w3.org/2000/svg" xmlns:xlink="http://www.w3.org/1999/xlink"
	 x="0px" y="0px" viewBox="0 0 500 500" style="enable-background:new 0 0 500 500;" xml:space="preserve">
<path d="M250,29C127.9,29,29,127.9,29,250s98.9,221,221,221s221-98.9,221-221S372.1,29,250,29z M250,71.8
	c98.5,0,178.2,79.7,178.2,178.2c0,98.5-79.7,178.2-178.2,178.2c-98.5,0-178.2-79.7-178.2-178.2C71.8,151.5,151.5,71.8,250,71.8
	 M374.9,187.9l-20.1-20.2c-4.2-4.2-10.9-4.2-15.1-0.1l-126,125l-53.3-53.7c-4.2-4.2-10.9-4.2-15.1-0.1l-20.2,20.1
	c-4.2,4.2-4.2,10.9-0.1,15.1l80.9,81.6c4.2,4.2,10.9,4.2,15.1,0.1L374.9,203C379.1,198.8,379.1,192.1,374.9,187.9L374.9,187.9z"/>
</svg>
