<?xml version="1.0" encoding="utf-8"?>
<!-- Generator: Adobe Illustrator 25.2.1, SVG Export Plug-In . SVG Version: 6.00 Build 0)  -->
<svg version="1.1" id="Layer_3" xmlns="http://www.w3.org/2000/svg" xmlns:xlink="http://www.w3.org/1999/xlink" x="0px" y="0px"
	 viewBox="0 0 500 500" style="enable-background:new 0 0 500 500;" xml:space="preserve">
<path d="M434.5,104.2l-31-31.1c-6.1-6.1-16.2-6.1-22.4,0l-122,122l-122-122c-6.1-6.1-16.2-6.1-22.4,0l-31,31
	c-6.1,6.1-6.1,16.2,0,22.4l122,122l-122,122c-6.1,6.1-6.1,16.2,0,22.4l31,31c6.1,6.1,16.2,6.1,22.4,0l122-122l122,122
	c6.1,6.1,16.2,6.1,22.4,0l31-31c6.1-6.1,6.1-16.2,0-22.4l-122-122l122-122C440.8,120.4,440.8,110.4,434.5,104.2z"/>
</svg>
