<?xml version="1.0" encoding="utf-8"?>
<!-- Generator: Adobe Illustrator 25.2.1, SVG Export Plug-In . SVG Version: 6.00 Build 0)  -->
<svg version="1.1" id="Layer_1" focusable="false" xmlns="http://www.w3.org/2000/svg" xmlns:xlink="http://www.w3.org/1999/xlink"
	 x="0px" y="0px" viewBox="0 0 500 500" style="enable-background:new 0 0 500 500;" xml:space="preserve">
<g>
	<path d="M121.6,260v11c0,6.2,5.1,11.2,11.2,11.2h60.6L31.8,443.9c-4.3,4.3-4.5,11.6,0,16l8.4,8.4c4.3,4.3,11.6,4.5,16,0
		l161.6-161.6l-0.1,60.3c0,6.2,5.1,11.2,11.2,11.2h11c6.2,0,11.2-5.1,11.2-11.2V259c0-5.6-4.6-10.3-10.4-10.4l-107.8,0.1
		C126.6,248.7,121.6,253.7,121.6,260z"/>
	<path d="M248.7,132.9l-0.1,107.8c0.1,5.7,4.7,10.4,10.4,10.4h108c6.2,0,11.2-5.1,11.2-11.2v-11.1c0-6.2-5.1-11.2-11.2-11.2
		l-60.3,0.1L468.2,56.1c4.5-4.5,4.3-11.7,0-16l-8.4-8.4c-4.5-4.5-11.7-4.3-16,0L282.3,193.4v-60.6c0-6.2-5.1-11.2-11.2-11.2h-11
		C253.7,121.6,248.7,126.6,248.7,132.9z"/>
</g>
</svg>
