<?xml version="1.0" encoding="utf-8"?>
<!-- Generator: Adobe Illustrator 25.2.1, SVG Export Plug-In . SVG Version: 6.00 Build 0)  -->
<svg version="1.1" id="Layer_1" focusable="false" xmlns="http://www.w3.org/2000/svg" xmlns:xlink="http://www.w3.org/1999/xlink"
	 x="0px" y="0px" viewBox="0 0 500 500" style="enable-background:new 0 0 500 500;" xml:space="preserve">
<path d="M76.2,492c-19.6,0-35.6-15.9-35.6-35.6V139.6c0-19.7,16-35.6,35.6-35.6h91.1V44.6c0-19.7,16-35.6,35.6-35.6h170.4
	c9.6,0,18.5,3.7,25.3,10.4l51.3,51.3c6.8,6.8,10.4,15.7,10.4,25.2v265.4c0,19.7-16,35.6-35.6,35.6h-91.1v59.4
	c0,19.7-16,35.6-35.6,35.6H76.2z M82.2,127.8c-9.8,0-17.8,8-17.8,17.8v304.9c0,9.8,8,17.8,17.8,17.8h209.9c9.8,0,17.8-8,17.8-17.8
	v-53.5H203c-19.7,0-35.6-16-35.6-35.6V127.8H82.2z M208.9,32.7c-9.8,0-17.8,8-17.8,17.8v304.9c0,9.8,8,17.8,17.8,17.8h209.9
	c9.8,0,17.8-8,17.8-17.8V143.6h-99c-6.6,0-11.9-5.3-11.9-11.9v-99H208.9z M349.5,119.9h87.1V98.4c0-4.7-1.8-9.3-5.2-12.6l-47.9-47.9
	c-3.4-3.4-7.8-5.2-12.6-5.2h-21.4V119.9z"/>
</svg>
