<?xml version="1.0" encoding="utf-8"?>
<!-- Generator: Adobe Illustrator 25.2.1, SVG Export Plug-In . SVG Version: 6.00 Build 0)  -->
<svg version="1.1" id="Layer_2_1_" xmlns="http://www.w3.org/2000/svg" xmlns:xlink="http://www.w3.org/1999/xlink" x="0px" y="0px"
	 viewBox="0 0 500 500" style="enable-background:new 0 0 500 500;" xml:space="preserve">
<path d="M456.8,81.2l-33.4-34.9c-21.4-22.4-56.9-22.7-78.8-0.8L43.4,347.7l-9.6,97.6c-1.2,12.2,9.1,22.4,21.3,21.2l98.2-10.1
	l302.6-303.7C475.5,132.9,475.9,101.3,456.8,81.2z M157.8,413l-17.6,17.6l-50.9,6.3L64.7,413l5-52.7l18.2-17.6h29.5v39.6h40.2V413
	H157.8z M181.6,389.7l1.1-30.1l-42.6-0.1l-0.6-40.8l-27.6-0.6l190.9-190.8l26.6,26.1L174.1,308.1c-5.3,5.3-5.1,13.9,0.5,19l0,0
	c5.2,4.7,13.1,4.5,18-0.5l154.8-155.4l26.9,26.4L181.6,389.7z M434.9,136.6l-42.4,42.8l-71.6-70.9l42.8-43.2
	c11.3-11.5,29.9-11.4,41.1,0.1l30.1,30.7C446.1,107.3,446.1,125.3,434.9,136.6z"/>
</svg>
