<?xml version="1.0" encoding="utf-8"?>
<!-- Generator: Adobe Illustrator 25.2.1, SVG Export Plug-In . SVG Version: 6.00 Build 0)  -->
<svg version="1.1" id="Layer_1" focusable="false" xmlns="http://www.w3.org/2000/svg" xmlns:xlink="http://www.w3.org/1999/xlink"
	 x="0px" y="0px" viewBox="0 0 500 500" style="enable-background:new 0 0 500 500;" xml:space="preserve">
<path d="M161.1,463.9v-10.8c0-6.1-5.1-11-11-11H90.5l158.7-158.7c4.3-4.3,4.4-11.3,0-15.7l-8.2-8.2c-4.3-4.3-11.3-4.4-15.7,0
	L66.7,418l0.1-59.2c0-6.1-5.1-11-11-11H45c-6.1,0-11,5.1-11,11v106.1c0,5.5,4.5,10.1,10.2,10.2L150,475
	C156.1,475,161.1,470,161.1,463.9z"/>
<path d="M469,156l0.1-105.8C469,44.6,464.5,40,458.9,40H352.8c-6.1,0-11,5.1-11,11v10.9c0,6.1,5.1,11,11,11l59.2-0.1L253.4,231.4
	c-4.4,4.4-4.3,11.5,0,15.7l8.2,8.2c4.4,4.4,11.5,4.3,15.7,0L436,96.6v59.5c0,6.1,5.1,11,11,11h10.8C464,167.2,469,162.2,469,156z"/>
</svg>
