<?xml version="1.0" encoding="utf-8"?>
<!-- Generator: Adobe Illustrator 25.2.1, SVG Export Plug-In . SVG Version: 6.00 Build 0)  -->
<svg version="1.1" id="Layer_2_1_" xmlns="http://www.w3.org/2000/svg" xmlns:xlink="http://www.w3.org/1999/xlink" x="0px" y="0px"
	 viewBox="0 0 500 500" style="enable-background:new 0 0 500 500;" xml:space="preserve">
<g>
	<path d="M465.6,394.1H49.1V92.4c0-7.6-6.1-13.7-13.7-13.7l0,0C27.1,77.9,21,84.8,21,92.4v307.8c0,12.2,9.9,22,22,22h422.6
		c7.6,0,13.7-6.1,13.7-13.7l0,0C480,400.2,474,394.1,465.6,394.1z"/>
	<path d="M150.2,336.4L150.2,336.4c7.6,0,14.4-6.1,14.4-14.4v-57c0-7.6-6.1-14.4-14.4-14.4l0,0c-7.6,0-14.4,6.1-14.4,14.4v57
		C135.7,329.5,141.8,336.4,150.2,336.4z"/>
	<path d="M236.1,336.4c7.6,0,14.4-6.1,14.4-14.4V149.4c0-7.6-6.1-14.4-14.4-14.4c-7.6,0-14.4,6.1-14.4,14.4v172.5
		C221.6,329.5,228.5,336.4,236.1,336.4z"/>
	<path d="M407.8,336.4c7.6,0,14.4-6.1,14.4-14.4V121.3c0-7.6-6.1-14.4-14.4-14.4c-7.6,0-14.4,6.1-14.4,14.4v200.6
		C393.4,329.5,399.5,336.4,407.8,336.4z"/>
	<path d="M321.9,336.4c7.6,0,14.4-6.1,14.4-14.4v-114c0-7.6-6.1-14.4-14.4-14.4c-7.6,0-14.4,6.1-14.4,14.4v114
		C307.5,329.5,313.6,336.4,321.9,336.4z"/>
</g>
</svg>
