<?xml version="1.0" encoding="utf-8"?>
<!-- Generator: Adobe Illustrator 25.2.1, SVG Export Plug-In . SVG Version: 6.00 Build 0)  -->
<svg version="1.1" id="Layer_1" focusable="false" xmlns="http://www.w3.org/2000/svg" xmlns:xlink="http://www.w3.org/1999/xlink"
	 x="0px" y="0px" viewBox="0 0 500 500" style="enable-background:new 0 0 500 500;" xml:space="preserve">
<g>
	<path d="M472,73.5H28.2c-4.8,0-8.6,3.9-8.6,8.6v20.2c0,4.8,3.9,8.6,8.6,8.6H472c4.8,0,8.6-3.9,8.6-8.6V82.1
		C480.6,77.3,476.7,73.5,472,73.5z"/>
	<path d="M472,235.6H28.2c-4.8,0-8.6,3.9-8.6,8.6v20.2c0,4.8,3.9,8.6,8.6,8.6H472c4.8,0,8.6-3.9,8.6-8.6v-20.2
		C480.6,239.5,476.7,235.6,472,235.6z"/>
	<path d="M472,403.9H28.2c-4.8,0-8.6,3.9-8.6,8.6v20.2c0,4.8,3.9,8.6,8.6,8.6H472c4.8,0,8.6-3.9,8.6-8.6v-20.2
		C480.6,407.8,476.7,403.9,472,403.9z"/>
</g>
</svg>
