<?xml version="1.0" encoding="utf-8"?>
<!-- Generator: Adobe Illustrator 25.2.1, SVG Export Plug-In . SVG Version: 6.00 Build 0)  -->
<svg version="1.1" id="Layer_3" xmlns="http://www.w3.org/2000/svg" xmlns:xlink="http://www.w3.org/1999/xlink" x="0px" y="0px"
	 viewBox="0 0 574 500" style="enable-background:new 0 0 574 500;" xml:space="preserve">
<g>
	<g>
		<path d="M287.5,360.8c21.3,0,41.5-4.9,59.4-13.7l-24.8-19.6c-10.9,3.6-22.5,5.6-34.6,5.6c-60.5,0-109.5-49-109.5-109.5
			c0-3.3,0.2-6.6,0.4-9.8l-23.4-18.5c-2.1,9.6-3.3,19.5-3.3,29.8C151.6,300,212.4,360.8,287.5,360.8z"/>
		<path d="M213.8,142.3c19.4-17.6,45.2-28.4,73.5-28.4c60.5,0,109.5,49,109.5,109.5c0,19.2-4.9,37.2-13.6,52.9l21.4,16.9
			c11.7-20.1,18.4-43.4,18.4-68.3c0-34.9-13.2-66.8-34.9-90.8c22.8,10.7,44,25.2,63.6,43.5c31.6,29.5,49.8,60.9,56.6,73.9
			c-6.7,13-25,44.4-56.6,73.9c-1,1-2,1.9-3.1,2.8l18.3,14.5c0.2-0.2,0.3-0.3,0.5-0.5c39-36.4,58.9-74.8,64.1-85.7
			c1.5-3.1,1.5-6.7,0-9.9c-5.2-10.9-25.1-49.3-64.1-85.7c-22.7-21.1-47.9-37.9-74.9-49.9c-33.1-14.7-69.2-22.1-107.4-22.1
			c-42.9,0-79,9.3-109.1,23.5L213.8,142.3z"/>
		<path d="M379.5,372.9c-29.1,12.2-60.6,18.3-94.2,18.3c-138.8,0-200-107.7-215.1-139.6c7.2-15.3,25.1-48.2,57.2-78.2L109.2,159
			c-37.4,35.9-56.4,74.9-62.1,88l0,0c-1.3,2.9-1.3,6.3,0,9.2l0,0c11.6,26.4,77.3,158,238.2,158c38.1,0,74.3-7.4,107.5-22.1
			c2.4-1,4.7-2.1,7-3.2L379.5,372.9z"/>
		<path d="M339.1,241.4c1.9-5.5,2.9-11.3,2.9-17.4c0-29.6-24-53.6-53.6-53.6c-0.5,0-0.9,0-1.4,0c1,3.6,1.6,7.5,1.6,11.4
			c0,6-1.2,11.6-3.4,16.8L339.1,241.4z"/>
	</g>
	<path d="M539.4,467.5L17.2,54.4c-3.1-2.4-3.6-6.9-1.2-9.9l8.6-10.9c2.4-3.1,6.9-3.6,9.9-1.2l522.2,413.1c3.1,2.4,3.6,6.9,1.2,9.9
		l-8.6,10.9C546.9,469.5,542.4,470,539.4,467.5z"/>
</g>
</svg>
