<?xml version="1.0" encoding="utf-8"?>
<!-- Generator: Adobe Illustrator 25.2.1, SVG Export Plug-In . SVG Version: 6.00 Build 0)  -->
<svg version="1.1" id="Layer_1" focusable="false" xmlns="http://www.w3.org/2000/svg" xmlns:xlink="http://www.w3.org/1999/xlink"
	 x="0px" y="0px" viewBox="0 0 500 500" style="enable-background:new 0 0 500 500;" xml:space="preserve">
<g>
	<path d="M432.7,432.7H67.3c-31,0-56.3-25.2-56.3-56.3V123.5c0-31,25.2-56.3,56.3-56.3h365.5c31,0,56.3,25.2,56.3,56.3v253
		C489,407.5,463.8,432.7,432.7,432.7z M67.3,95.4c-15.5,0-28.1,12.6-28.1,28.1v253c0,15.5,12.6,28.1,28.1,28.1h365.5
		c15.5,0,28.1-12.6,28.1-28.1v-253c0-15.5-12.6-28.1-28.1-28.1H67.3z M391.7,361.9H108.3c-7.1,0-12.9-5.7-12.9-12.9v-39.3
		c0-6.3,2.5-12.4,7-16.8l31.9-31.9c4.9-4.9,11.4-7.5,18.3-7.2c6.3,0.2,12.4,3,16.9,7.6l24.4,24.4l95.1-95.1c9.6-9.6,25.2-9.6,34.8,0
		l74,74c4.5,4.5,7,10.5,7,16.8v67.4C404.6,356.1,398.9,361.9,391.7,361.9z M123.5,333.8h253v-50.4l-70.3-70.3L193.7,325.6
		l-42.2-42.2l-28.1,28.1v22.2H123.5z M137.6,230.7c-27.1,0-49.2-22.1-49.2-49.2s22.1-49.2,49.2-49.2s49.2,22.1,49.2,49.2
		S164.7,230.7,137.6,230.7z M137.6,160.4c-11.6,0-21.1,9.4-21.1,21.1c0,11.6,9.4,21.1,21.1,21.1s21.1-9.4,21.1-21.1
		C158.6,169.8,149.2,160.4,137.6,160.4z"/>
</g>
</svg>
