<?xml version="1.0" encoding="utf-8"?>
<!-- Generator: Adobe Illustrator 25.2.1, SVG Export Plug-In . SVG Version: 6.00 Build 0)  -->
<svg version="1.1" id="Layer_3" xmlns="http://www.w3.org/2000/svg" xmlns:xlink="http://www.w3.org/1999/xlink" x="0px" y="0px"
	 viewBox="0 0 500 500" style="enable-background:new 0 0 500 500;" xml:space="preserve">
<g>
	<path d="M492.3,245.1c-5.2-10.9-25.1-49.3-64.1-85.7c-22.7-21.2-47.9-38-74.9-49.9C320.1,94.9,284,87.4,245.8,87.4
		C84.9,87.4,19.1,219,7.6,245.4l0,0c-1.3,2.9-1.3,6.3,0,9.2l0,0c11.6,26.4,77.3,158,238.2,158c38.1,0,74.3-7.4,107.5-22.1
		c27.1-11.9,52.3-28.7,74.9-49.9c39-36.4,58.9-74.8,64.1-85.7C493.8,251.8,493.8,248.2,492.3,245.1z M357.5,222
		c0,60.5-49,109.5-109.5,109.5s-109.5-49-109.5-109.5S187.6,112.5,248,112.5C308.5,112.5,357.5,161.5,357.5,222z M412.5,323.9
		c-46.7,43.6-102.8,65.8-166.7,65.8C107,389.7,45.8,282,30.7,250.1c11-23.2,46.3-86.5,118.3-119.3c-22.7,24.1-36.7,56.8-36.7,92.7
		c0,75,60.8,135.7,135.7,135.7s135.8-60.8,135.8-135.7c0-34.9-13.2-66.8-34.9-90.8c22.8,10.7,44,25.2,63.6,43.5
		c31.6,29.5,49.8,60.9,56.6,73.9C462.3,263,444.1,294.4,412.5,323.9z"/>
	<path d="M248.9,168.8c-0.5,0-0.9,0-1.4,0c1,3.6,1.6,7.5,1.6,11.4c0,23.7-19.2,42.9-42.9,42.9c-3.8,0-7.4-0.5-10.9-1.4
		c0,0.2,0,0.5,0,0.7c0,29.6,24,53.6,53.6,53.6s53.6-24,53.6-53.6S278.5,168.8,248.9,168.8z"/>
</g>
</svg>
